<?xml version="1.0" encoding="utf-8"?>
<!-- Generator: Adobe Illustrator 26.5.0, SVG Export Plug-In . SVG Version: 6.00 Build 0)  -->
<svg version="1.1" id="Layer_1" xmlns="http://www.w3.org/2000/svg" xmlns:xlink="http://www.w3.org/1999/xlink" x="0px" y="0px"
	 viewBox="0 0 100 100" style="enable-background:new 0 0 100 100;" xml:space="preserve">
<style type="text/css">
	.st0{fill:#B0AFAF;}
</style>
<path class="st0" d="M91.8,81.3L75.1,64.6c-0.8-0.8-1.8-1.2-2.9-1.2h-2.7c4.6-5.9,7.4-13.4,7.4-21.5C76.9,22.7,61.2,7,41.9,7
	S7,22.7,7,41.9s15.6,34.9,34.9,34.9c8.1,0,15.6-2.8,21.5-7.4v2.7c0,1.1,0.4,2.1,1.2,2.9l16.7,16.7c1.6,1.6,4.1,1.6,5.7,0l4.8-4.8
	C93.4,85.5,93.4,82.9,91.8,81.3z M41.9,63.4c-11.9,0-21.5-9.6-21.5-21.5S30,20.4,41.9,20.4S63.4,30,63.4,41.9S53.8,63.4,41.9,63.4z"
	/>
</svg>
